<?xml version="1.0" encoding="UTF-8" standalone="no"?>
<svg
   xmlns:dc="http://purl.org/dc/elements/1.1/"
   xmlns:cc="http://creativecommons.org/ns#"
   xmlns:rdf="http://www.w3.org/1999/02/22-rdf-syntax-ns#"
   xmlns:svg="http://www.w3.org/2000/svg"
   xmlns="http://www.w3.org/2000/svg"
   width="200"
   height="300"
   viewBox="0 0 52.916665 79.375005"
   version="1.1"
   id="svg1507">
  <defs
     id="defs1501" />
  <metadata
     id="metadata1504">
    <rdf:RDF>
      <cc:Work
         rdf:about="">
        <dc:format>image/svg+xml</dc:format>
        <dc:type
           rdf:resource="http://purl.org/dc/dcmitype/StillImage" />
        <dc:title></dc:title>
      </cc:Work>
    </rdf:RDF>
  </metadata>
  <g
     id="layer1">
    <g
       transform="matrix(0.09992313,0,0,0.09992313,0.9690611,13.831161)"
       id="g1844">
      <path
         id="path1798"
         fill="#fed2a4"
         d="m 166.286,280.088 -9.731,47.531 c -0.833,4.071 -3.629,7.463 -7.464,9.057 L 50.18,377.789 v 44.595 l 136.643,-54.208 c 6.633,-2.631 11.844,-7.947 14.345,-14.634 l 15.328,-40.971 z" />
      <path
         id="path1800"
         fill="#ffbd86"
         d="m 166.286,280.088 -0.813,3.972 20.417,13.209 -15.328,40.971 c -2.501,6.686 -7.713,12.002 -14.345,14.634 L 50.18,394.938 v 27.445 l 136.643,-54.208 c 6.633,-2.631 11.844,-7.947 14.345,-14.634 l 15.328,-40.971 z" />
      <path
         id="path1802"
         fill="#fed2a4"
         d="m 173.633,234.948 82.269,34.523 61.587,46.396 c 7.504,5.653 12.415,14.094 13.623,23.415 l 15.551,120.03 h -44.546 l -22.74,-115.607 -97.343,-48.196 z" />
      <path
         id="path1804"
         fill="#ffbd86"
         d="m 331.111,339.282 c -1.208,-9.321 -6.118,-17.762 -13.622,-23.415 l -61.587,-46.396 -82.269,-34.523 1.515,10.924 56.236,23.599 61.587,46.396 c 7.504,5.653 12.415,14.094 13.623,23.415 l 15.551,120.03 h 24.517 z" />
      <path
         id="path1806"
         fill="#fe9738"
         d="m 255.902,269.471 55.14,-130.699 c 4.855,-11.508 -0.226,-24.799 -11.517,-30.127 L 272.298,95.797 c -15.027,-7.091 -32.94,-3.33 -43.84,9.205 -5.645,6.492 -10.114,13.917 -13.207,21.943 l -41.618,108.003 z" />
      <path
         id="path1808"
         fill="#fe860a"
         d="M 299.525,108.645 272.298,95.797 c -3.013,-1.418 -6.204,-2.427 -9.48,-2.996 -3.088,-0.536 -6.22,-0.681 -9.338,-0.43 0.22,18.097 12.548,34.474 30.922,39.038 0.025,0.006 0.05,0.012 0.075,0.019 3.746,0.923 5.834,4.905 4.334,8.46 L 267.585,190.2 c -14.913,35.348 -55.63,51.949 -91.007,37.103 l -2.209,5.733 -0.737,1.912 82.269,34.523 55.14,-130.699 c 4.855,-11.508 -0.226,-24.799 -11.516,-30.127 z" />
      <path
         id="path1810"
         fill="#fed2a4"
         d="m 310.065,141.086 26.331,17.723 h 68.771 c 9.57,0 17.626,7.168 18.744,16.679 1.287,10.951 -7.034,20.671 -18.046,21.079 l -70.863,2.626 c -4.28,0.159 -8.502,-1.028 -12.072,-3.393 l -28.098,-18.612 z" />
      <path
         id="path1812"
         fill="#0067c5"
         d="m 302.116,459.312 h 44.546 l 22.812,20.818 c 3.51,3.203 5.51,7.737 5.51,12.491 0,9.336 -7.564,16.905 -16.894,16.905 h -35.955 c -11.056,0 -20.019,-8.969 -20.019,-20.033 z" />
      <path
         id="path1814"
         fill="#0055a3"
         d="m 369.474,480.129 -22.812,-20.818 h -24.968 l 22.812,20.818 c 3.51,3.203 5.51,7.737 5.51,12.491 0,9.336 -7.564,16.905 -16.894,16.905 h 24.968 c 9.33,0 16.894,-7.569 16.894,-16.905 0,-4.753 -2,-9.287 -5.51,-12.491 z" />
      <path
         id="path1816"
         fill="#0067c5"
         d="m 50.18,377.809 v 44.575 l -20.804,22.827 c -3.201,3.512 -7.732,5.514 -12.483,5.514 C 7.564,450.725 0,443.156 0,433.82 v -41.942 c 0,-7.77 6.295,-14.069 14.06,-14.069 z" />
      <path
         id="path1818"
         fill="#0055a3"
         d="M 16.894,423.123 C 7.564,423.123 0,415.555 0,406.218 v 27.602 c 0,9.336 7.564,16.905 16.894,16.905 4.751,0 9.282,-2.001 12.483,-5.514 l 20.804,-22.827 v -27.602 l -20.804,22.827 c -3.201,3.513 -7.733,5.514 -12.483,5.514 z" />
      <g
         id="g1824">
        <path
           id="path1820"
           fill="#fed2a4"
           d="m 189.362,163.562 -19.678,0.75 -42.533,42.022 c -8.157,8.059 -21.291,8.017 -29.397,-0.094 -8.273,-8.278 -8.124,-21.739 0.329,-29.833 l 44.492,-42.599 c 5.423,-5.192 12.529,-8.266 20.027,-8.663 l 26.829,-1.421 z" />
        <path
           id="path1822"
           fill="#fe860a"
           d="m 189.431,123.726 -0.069,39.837 32.982,-1.257 c 6.401,-0.244 11.806,-4.833 13.084,-11.11 l 3.768,-18.496 c 1.21,-5.94 -3.516,-11.422 -9.569,-11.102 z" />
      </g>
      <path
         id="path1826"
         fill="#fe9738"
         d="m 336.396,158.81 -26.332,-17.723 -15.231,36.104 28.098,18.612 c 1.761,1.167 3.682,2.044 5.69,2.617 z" />
      <path
         id="path1828"
         fill="#0067c5"
         d="m 311.196,293.301 -55.294,-23.829 -82.269,-34.523 -33.58,82.298 c -1.896,4.647 -0.833,9.977 2.702,13.543 l 37.755,38.084 c 5.827,5.878 15.656,4.596 19.778,-2.58 l 20.048,-34.903 37.499,26.236 c 5.048,3.531 11.916,2.874 16.2,-1.552 l 41.206,-42.564 c 6.095,-6.298 4.005,-16.741 -4.045,-20.21 z" />
      <path
         id="path1830"
         fill="#0055a3"
         d="m 311.196,293.301 -4.248,-1.831 -11.724,12.11 c -16.493,17.036 -42.918,19.569 -62.347,5.976 l 23.025,-40.085 -26.497,-11.119 -27.514,47.9 c -12.63,21.989 -42.727,25.919 -60.58,7.91 l -1.258,3.084 c -1.896,4.647 -0.833,9.977 2.7,13.541 l 37.759,38.088 c 5.828,5.879 15.652,4.596 19.775,-2.582 l 20.048,-34.903 37.499,26.236 c 5.049,3.532 11.916,2.874 16.201,-1.553 l 41.201,-42.559 c 6.096,-6.297 4.007,-16.745 -4.04,-20.213 z" />
      <g
         id="g1842">
        <g
           id="g1840">
          <path
             id="path1832"
             fill="#fed2a4"
             d="M 281.727,109.215 C 259.886,103.789 246.582,81.673 252.011,59.817 l 6.553,-26.382 C 263.993,11.579 286.1,-1.74 307.94,3.686 c 21.84,5.426 35.145,27.542 29.716,49.398 l -6.553,26.382 c -5.43,21.856 -27.536,35.175 -49.376,29.749 z" />
          <path
             id="path1834"
             fill="#ffbd86"
             d="m 338.27,50.2 c -0.17,0.96 -0.37,1.92 -0.61,2.88 l -3.28,13.18 v 0.01 l -3.28,13.2 c -4.61,18.55 -21.24,30.95 -39.52,30.95 -3.25,0 -6.55,-0.39 -9.85,-1.21 -11.27,-2.79 -20.26,-10.04 -25.58,-19.4 3.15,1.78 6.59,3.19 10.27,4.1 21.84,5.43 43.95,-7.89 49.38,-29.75 l 1.96,-7.88 4.59,-18.5 c 2.54,-10.21 0.98,-20.47 -3.62,-29.07 -0.17,-0.31 -0.34,-0.62 -0.51,-0.92 0.22,0.13 0.44,0.25 0.66,0.39 14.28,8.44 22.34,25.09 19.39,42.02 z" />
          <path
             id="path1836"
             fill="#685e68"
             d="m 307.94,3.686 c -21.841,-5.426 -43.947,7.893 -49.376,29.749 l -3.277,13.191 14.081,9.347 c 4.305,2.858 10.058,2.121 13.502,-1.73 l 5.275,-5.896 c 3.327,-3.719 8.83,-4.55 13.108,-1.979 l 33.126,19.907 3.277,-13.191 C 343.085,31.228 329.781,9.112 307.94,3.686 Z" />
          <path
             id="path1838"
             fill="#554e56"
             d="m 338.27,50.2 c -0.17,0.96 -0.37,1.92 -0.61,2.88 l -3.28,13.18 v 0.01 l -16.62,-9.99 4.59,-18.5 c 2.54,-10.21 0.98,-20.47 -3.62,-29.07 -0.17,-0.31 -0.34,-0.62 -0.51,-0.92 0.22,0.13 0.44,0.25 0.66,0.39 14.28,8.44 22.34,25.09 19.39,42.02 z" />
        </g>
      </g>
    </g>
  </g>
</svg>
