<?xml version="1.0" encoding="UTF-8" standalone="no"?>
<svg
   xmlns:dc="http://purl.org/dc/elements/1.1/"
   xmlns:cc="http://creativecommons.org/ns#"
   xmlns:rdf="http://www.w3.org/1999/02/22-rdf-syntax-ns#"
   xmlns:svg="http://www.w3.org/2000/svg"
   xmlns="http://www.w3.org/2000/svg"
   id="svg1507"
   version="1.1"
   viewBox="0 0 52.916665 79.375005"
   height="300"
   width="200">
  <defs
     id="defs1501" />
  <metadata
     id="metadata1504">
    <rdf:RDF>
      <cc:Work
         rdf:about="">
        <dc:format>image/svg+xml</dc:format>
        <dc:type
           rdf:resource="http://purl.org/dc/dcmitype/StillImage" />
        <dc:title></dc:title>
      </cc:Work>
    </rdf:RDF>
  </metadata>
  <g
     id="layer1">
    <path
       id="path1971"
       d="m 29.720258,41.107392 0.649187,0.908959 c 0,0 -0.129887,2.596868 0,3.375941 l -4.414787,1.688032 -2.077568,-4.804323 z"
       style="fill:#ffd15c;stroke-width:0.12173" />
    <path
       id="path1973"
       d="m 25.695008,46.560901 c 0,0 0.908959,-0.25965 1.168609,-0.519422 0.25965,-0.25965 2.726755,-1.42826 3.375941,-1.168609 0,0 0.259651,2.077568 0.779073,2.467104 0,0 0.649187,1.817796 1.298495,3.246177 0.649187,1.42826 1.16861,2.856641 1.42826,4.414786 0.129886,0.908959 0.25965,1.688032 0.389536,2.077568 0.389537,1.038724 0.908959,5.063973 0.908959,5.063973 l -1.947682,1.817796 c 0,0 -1.298495,0 -1.298495,-1.298495 -0.129886,-1.298495 0,-1.038723 -0.389536,-2.207332 -0.389537,-1.168609 -1.298496,-3.246177 -1.298496,-3.246177 0,0 -1.947681,-1.947682 -2.467104,-5.71316 1.22e-4,-1.22e-4 -1.558024,-4.025372 -1.94756,-4.934209 z"
       style="fill:#f26f5a;stroke-width:0.12173" />
    <path
       id="path1975"
       d="m 34.524459,66.167485 c 0,0 0.649186,1.038723 0.779072,1.168609 0.259651,0.129886 0.259651,0 0.259651,0 v -0.389536 h 0.129886 l 0.129886,0.25965 c 0.129886,0 0.25965,0 0.25965,-0.129886 v -0.389536 l 0.259651,0.25965 c 0.25965,0 0.519422,-0.129886 0.779072,-0.25965 v -0.259651 c 0.129886,-0.129886 0.129886,-0.25965 0.259651,-0.129886 l 0.129886,0.129886 c 0.129886,0.129886 0.25965,0.129886 0.389536,-0.129886 v -0.649187 l -0.389536,-0.649186 z"
       style="fill:#2f4251;stroke-width:0.12173" />
    <g
       transform="matrix(0.12173012,0,0,0.12173012,-2.9867995,8.5044139)"
       id="g1981">
      <path
         id="path1977"
         d="m 116.151,147.296 c 0,0 3.2,24.533 -4.267,42.667 -7.467,18.133 -8.533,38.4 -8.533,38.4 0,0 0,6.4 3.2,9.6 3.2,2.133 4.267,9.6 4.267,9.6 0,0 0,7.467 2.133,11.733 2.133,4.266 3.2,8.533 2.133,9.6 -1.067,1.067 -4.267,2.133 -6.4,-1.067 -2.133,-3.2 -3.2,-7.467 -3.2,-7.467 l -1.067,-2.133 c 0,0 -3.2,1.067 -3.2,4.267 1.067,4.267 1.067,4.267 1.067,4.267 0,0 1.067,3.2 1.067,5.333 0,0 3.2,2.133 3.2,4.267 0,0 5.333,2.133 4.267,5.333 0,0 -1.067,1.067 -3.2,0 0,0 -2.133,0 -3.2,-1.067 -1.067,-2.133 -8.533,-7.467 -8.533,-7.467 0,0 -4.267,-6.4 -4.267,-7.467 l -3.2,-5.333 c 0,0 1.067,-19.2 2.133,-21.333 0,0 1.067,-4.267 0,-6.4 -1.067,-1.067 -2.133,-7.467 -1.067,-8.533 0,0 0,-14.933 -1.067,-33.067 -1.067,-18.134 5.333,-46.933 8.533,-55.467 z"
         style="fill:#ffd15c" />
      <path
         id="path1979"
         d="m 332.685,92.896 3.2,-2.133 c 0,0 20.267,7.467 26.667,13.867 6.4,6.4 22.4,14.933 22.4,14.933 0,0 3.2,0 5.333,3.2 1.067,2.133 4.267,1.067 4.267,1.067 0,0 7.467,-1.067 11.733,1.067 3.2,1.067 9.6,3.2 10.667,4.267 l 2.133,2.133 4.267,7.467 c 0,0 1.067,2.133 2.133,3.2 0,0 -1.067,4.267 -4.267,2.133 0,0 -2.133,2.133 -5.333,-1.067 -2.133,-2.133 -2.133,-3.2 -2.133,-3.2 0,0 -4.267,-3.2 -5.333,-4.267 0,0 -1.067,0 -1.067,1.067 0,0 3.2,3.2 3.2,4.267 0,1.067 -2.133,3.2 -5.333,2.133 -3.2,-2.133 -4.267,-2.133 -4.267,-2.133 0,0 -5.333,2.133 -7.467,2.133 0,0 -2.133,3.2 -4.267,4.267 0,0 0,5.333 -3.2,4.267 l -2.133,-2.133 c 0,0 -2.133,-2.133 -3.2,-2.133 -1.067,0 -5.333,-4.267 -4.267,-5.333 1.067,-2.133 1.067,-3.2 1.067,-3.2 0,0 -5.333,-3.2 -9.6,-3.2 -4.267,0 -34.133,-3.2 -39.467,-12.8 -5.333,-11.735 4.267,-29.869 4.267,-29.869 z"
         style="fill:#ffd15c" />
    </g>
    <path
       id="path1983"
       d="m 21.150457,39.289474 v 1.817796 l -0.519422,0.519423 -0.519422,0.25965 -0.908959,0.129886 -1.038723,0.389536 c 0,0 -0.259651,1.16861 0.519422,1.817796 0.649187,0.649187 1.817796,-0.649186 1.817796,-0.649186 0,0 0.519422,-0.649187 0.519422,-1.038724 0,-0.389536 0.649187,-1.298495 0.649187,-1.298495 0,0 0.779073,-0.649186 0.908959,-1.428259 0,-0.519423 -1.42826,-0.519423 -1.42826,-0.519423 z"
       style="fill:#48b9a5;stroke-width:0.12173" />
    <path
       id="path1985"
       d="m 17.774394,41.367042 c -0.129886,0.649187 -0.389536,1.168609 -0.779073,1.558146 l -1.168609,0.908959 -2.077568,0.389536 -0.779072,-0.649187 c -0.129886,-0.25965 -0.129886,-0.519422 -0.259651,-0.779072 0,-0.259651 0,-0.519423 -0.129886,-0.649187 -0.129886,-0.519423 -0.25965,-1.558146 -0.129886,-2.596869 0.25965,-1.558145 1.42826,-1.428259 1.42826,-1.428259 z"
       style="fill:#ffd15c;stroke-width:0.12173" />
    <polygon
       transform="matrix(0.12173012,0,0,0.12173012,-2.9867995,8.5044139)"
       id="polygon1987"
       points="213.218,108.896 196.151,127.03 157.751,88.63 159.885,63.03 205.751,64.096 208.951,66.23 "
       style="fill:#f5b54c" />
    <path
       id="path1989"
       d="m 37.770636,21.370801 c -0.129886,0.389536 -0.259651,0.649186 -0.259651,0.908958 -0.129886,0.649187 -0.389536,1.16861 -0.779072,1.688032 -0.389537,0.389536 -0.908959,0.779073 -1.558146,0.649187 -1.428259,-0.259651 -1.558145,-0.389537 -2.077568,-0.389537 -0.519422,0 -1.038723,-0.129886 -1.038723,-0.129886 0,0 -0.25965,-0.129886 -0.779073,-0.129886 -0.519422,0 -1.688031,0 -1.688031,0 0,0 -0.389537,0 -0.519423,0.519423 -0.129886,0.519422 -0.649186,1.168609 -1.168609,1.298495 -0.519422,0.129886 0.259651,2.467104 0.259651,2.467104 0,0 -0.259651,1.298495 -0.389537,1.688032 0,0 0.389537,0.389536 0.129886,1.558145 0,0 0,0.389537 0.259651,0.649187 0.25965,0.25965 0.779072,2.467104 0.779072,2.467104 0,0 -3.246177,3.246178 -7.790727,2.986405 -4.544551,-0.389536 -4.544551,-0.389536 -4.544551,-0.389536 0,0 -3.375941,0.25965 -3.505827,-2.337218 0,0 -0.129886,-0.908959 0.129886,-1.298495 0.25965,-0.389537 0.129886,-1.038724 0.129886,-1.038724 0,0 -0.129886,-0.519422 0.129886,-0.649186 0.25965,-0.129886 -0.129886,-0.389537 -0.129886,-0.389537 0,0 -0.129886,-1.168609 0.389536,-1.947682 0,0 -0.389536,-2.207332 0,-3.375941 0,0 -0.389536,-0.25965 -0.389536,-0.389536 0,0 -1.168609,1.558145 -1.298496,2.337218 0,0 -0.908958,0.129886 -1.428259,0.129886 C 10.113553,28.122927 9.2047155,27.993163 9.0748294,27.47374 8.9449434,27.084204 8.555407,27.084204 7.7763343,26.045481 c 0,0 -0.3895364,-0.259651 -0.1298861,-1.038723 0.3895364,-0.649187 1.8177959,-3.895364 1.8177959,-3.895364 0,0 1.4282599,-2.467105 1.4282599,-2.856641 0,-0.389536 0.519422,-0.779073 0.779072,-0.908959 0.259651,-0.129886 0.519423,-0.519422 0.519423,-0.519422 0,0 0.389536,-0.389537 0.908959,-0.389537 0.389536,0 0.908958,-0.389536 0.908958,-0.389536 0,0 0.779073,-0.519422 1.42826,-0.649187 0.129886,0 0.129886,0 0.25965,0 1.038723,2.986405 2.856641,4.934087 4.804323,6.752005 0,0 0.779073,-0.908959 1.688031,-2.726755 0.779073,-1.688031 0.259651,-3.635713 -0.25965,-5.063973 h 0.129886 l 0.129886,0.649187 c 0,0 3.116291,-0.25965 4.414786,0.649187 0,0 1.558146,0 2.207333,0.519422 0,0 2.726754,0.779073 3.635713,1.558146 0.908959,0.779072 1.817796,0.649186 1.817796,0.649186 0,0 0.519423,0.389537 1.817796,0.649187 1.168609,0.129886 2.077568,0.908959 2.077568,0.908959 0,0 -1.22e-4,0.649065 -0.389658,1.428138 z"
       style="fill:#f26f5a;stroke-width:0.12173" />
    <path
       id="path1991"
       d="m 22.708603,14.878568 c -0.389537,0 -0.649187,0 -0.649187,0 L 21.92953,14.229381 h -0.129886 c 0.519422,1.298496 1.168609,3.375942 0.25965,5.063973 -0.908958,1.817796 -1.688031,2.726755 -1.688031,2.726755 -1.947682,-1.817796 -3.765478,-3.765478 -4.804323,-6.752004 -0.129886,0 -0.129886,0 -0.25965,0 -0.129764,0 -0.25965,0 -0.389537,0.129886 1.038724,2.986405 2.726755,5.063973 4.934087,7.011655 0.129886,0.129886 0.259651,0.129886 0.389537,0.129886 0.129886,0 0.389536,-0.129886 0.519422,-0.259651 0,0 0.908959,-1.038723 1.817796,-2.856641 0.909081,-1.298495 0.519544,-3.116412 0.130008,-4.544672 z"
       style="fill:#f3f3f3;stroke-width:0.12173" />
    <path
       id="path1993"
       d="m 22.319066,15.138219 c 0,0 0.389537,2.207332 -0.389536,3.116291 -0.649187,0.908958 -0.779073,1.298495 -0.779073,1.298495 0,0 -0.649186,1.168609 -1.558145,1.038723 -0.908959,-0.129886 -1.42826,-0.779073 -1.42826,-0.779073 0,0 0,-0.129886 -0.389536,-0.389536 -0.389536,-0.129886 -1.558146,-1.168609 -1.817796,-2.077568 0,0 -0.25965,-0.649187 -0.25965,-1.038723 0,-0.259651 -0.259651,-1.038723 -0.389537,-1.168609 -0.129886,0 -0.129886,-0.908959 -0.129886,-0.908959 l 6.362468,-0.389537 z"
       style="fill:#ffd15c;stroke-width:0.12173" />
    <path
       id="path1995"
       d="m 15.307412,15.268105 c 0,0 -0.259651,-0.779073 0.519422,-0.649187 0.779073,0.129886 1.688032,0.908959 2.207332,0.25965 0.519423,-0.649187 1.817796,-0.25965 1.817796,-0.25965 0,0 0.649187,0.129886 0.908959,-0.129886 0.25965,-0.259651 0.649187,0.129886 0.649187,0.129886 l 0.519422,0.908959 0.25965,-0.129886 c 0,0 -0.389536,-0.519423 -0.25965,-0.908959 0.129886,-0.519423 0.25965,-1.038723 0.25965,-1.038723 0,0 -0.129886,-1.298496 -0.25965,-1.817796 -0.129764,-0.519301 -0.519422,-2.4671045 -2.467104,-2.986527 -1.947682,-0.5194224 -3.246177,0.5194225 -4.02525,1.0387231 -0.649187,0.5194229 -1.42826,1.9476819 -1.298495,3.1162909 0.389658,1.038845 0.908959,2.337219 1.168731,2.467105 z"
       style="fill:#425b6b;stroke-width:0.12173" />
    <g
       transform="matrix(0.12173012,0,0,0.12173012,-2.9867995,8.5044139)"
       id="g2001">
      <path
         id="path1997"
         d="m 206.818,56.63 c -1.067,-2.133 -2.133,-5.333 -1.067,-8.533 1.067,-3.2 1.067,-8.533 3.2,-9.6 2.133,-1.067 4.267,-1.067 4.267,1.067 1.067,2.133 0,4.267 0,4.267 0,0 -1.067,6.4 0,8.533 1.067,2.133 -1.067,5.333 -2.133,6.4 -2.134,-0.001 -2.134,-0.001 -4.267,-2.134 z"
         style="fill:#ffd15c" />
      <path
         id="path1999"
         d="m 203.618,261.43 c -1.067,-6.4 -5.333,-7.467 -5.333,-7.467 h -2.133 l -12.8,14.933 -14.933,-2.133 c 0,0 1.067,10.667 -4.267,14.933 -4.267,3.2 -8.533,5.333 -12.8,7.467 -2.133,1.067 -4.267,1.067 -6.4,2.133 -5.333,1.067 -7.467,0 -7.467,0 0,0 -6.4,-2.133 -8.533,-9.6 0,0 0,3.2 0,4.267 1.067,2.133 2.133,3.2 3.2,4.267 2.133,2.133 6.4,3.2 9.6,2.133 3.2,0 6.4,-1.067 9.6,-2.133 2.133,-1.067 4.267,-1.067 6.4,-2.133 2.133,-1.067 4.267,-3.2 5.333,-4.267 l 11.733,-4.267 c 0,0 9.6,-1.067 9.6,-2.133 0,0 0,1.067 3.2,1.067 3.2,0 8.533,-3.2 8.533,-3.2 0,0 7.467,-7.467 7.467,-13.867 z"
         style="fill:#ffd15c" />
    </g>
    <path
       id="path2003"
       d="m 28.162112,34.225501 0.908959,0.129886 c 0,0 0.129886,0.129886 0.25965,1.16861 0.129886,1.038723 0.389537,1.688031 0.389537,1.688031 0,0 0.389536,0.908959 0.389536,1.558146 0,0.649186 0,0.908958 0.129886,1.298495 0.129886,0.389536 0.129886,1.817796 0.129886,1.817796 -2.467104,1.298495 -5.323623,1.298495 -6.492232,0.25965 l -1.42826,-2.337218 c -0.129886,-0.389537 -0.779073,-0.389537 -1.428259,-0.519423 0,0 -0.779073,0.779073 -1.298495,1.558146 -0.389537,0.779073 -1.298496,1.038723 -2.077568,1.038723 -1.298496,-0.129886 -2.596869,-0.389536 -3.895364,-1.038723 -0.129886,-0.129886 -0.389537,-0.129886 -0.519423,-0.25965 v 0 c -0.649186,-0.519423 -0.908958,-1.298496 -0.779072,-2.077568 l 0.779072,-4.02525 z"
       style="fill:#425a6b;stroke-width:0.12173" />
    <path
       id="path2005"
       d="m 32.18724,63.570616 c 0,0 1.16861,-0.129886 1.16861,-0.389536 0,0 -0.649187,-0.519423 0.129886,-0.779073 0.779072,-0.25965 1.688031,-0.25965 1.688031,-0.25965 0,0 0.389537,0.129886 0.908959,1.038723 0.389536,0.779073 1.038723,1.038723 1.558146,1.298495 0.25965,0.129886 0.908958,0.649187 0.25965,1.168609 0,0 -0.779073,-0.129886 -1.558146,0.389537 -0.779072,0.519422 -1.038723,1.038723 -1.558145,0.649186 -0.519423,-0.389536 -0.779073,-0.908959 -0.779073,-0.908959 z"
       style="fill:#48b9a5;stroke-width:0.12173" />
    <g
       transform="matrix(0.12173012,0,0,0.12173012,-2.9867995,8.5044139)"
       id="g2023" />
    <g
       transform="matrix(0.12173012,0,0,0.12173012,-2.9867995,8.5044139)"
       id="g2025" />
    <g
       transform="matrix(0.12173012,0,0,0.12173012,-2.9867995,8.5044139)"
       id="g2027" />
    <g
       transform="matrix(0.12173012,0,0,0.12173012,-2.9867995,8.5044139)"
       id="g2029" />
    <g
       transform="matrix(0.12173012,0,0,0.12173012,-2.9867995,8.5044139)"
       id="g2031" />
    <g
       transform="matrix(0.12173012,0,0,0.12173012,-2.9867995,8.5044139)"
       id="g2033" />
    <g
       transform="matrix(0.12173012,0,0,0.12173012,-2.9867995,8.5044139)"
       id="g2035" />
    <g
       transform="matrix(0.12173012,0,0,0.12173012,-2.9867995,8.5044139)"
       id="g2037" />
    <g
       transform="matrix(0.12173012,0,0,0.12173012,-2.9867995,8.5044139)"
       id="g2039" />
    <g
       transform="matrix(0.12173012,0,0,0.12173012,-2.9867995,8.5044139)"
       id="g2041" />
    <g
       transform="matrix(0.12173012,0,0,0.12173012,-2.9867995,8.5044139)"
       id="g2043" />
    <g
       transform="matrix(0.12173012,0,0,0.12173012,-2.9867995,8.5044139)"
       id="g2045" />
    <g
       transform="matrix(0.12173012,0,0,0.12173012,-2.9867995,8.5044139)"
       id="g2047" />
    <g
       transform="matrix(0.12173012,0,0,0.12173012,-2.9867995,8.5044139)"
       id="g2049" />
    <g
       transform="matrix(0.12173012,0,0,0.12173012,-2.9867995,8.5044139)"
       id="g2051" />
  </g>
</svg>
