<?xml version="1.0" encoding="UTF-8" standalone="no"?>
<svg
   xmlns:dc="http://purl.org/dc/elements/1.1/"
   xmlns:cc="http://creativecommons.org/ns#"
   xmlns:rdf="http://www.w3.org/1999/02/22-rdf-syntax-ns#"
   xmlns:svg="http://www.w3.org/2000/svg"
   xmlns="http://www.w3.org/2000/svg"
   id="svg1507"
   version="1.1"
   viewBox="0 0 52.916665 79.375005"
   height="300"
   width="200">
  <defs
     id="defs1501" />
  <metadata
     id="metadata1504">
    <rdf:RDF>
      <cc:Work
         rdf:about="">
        <dc:format>image/svg+xml</dc:format>
        <dc:type
           rdf:resource="http://purl.org/dc/dcmitype/StillImage" />
        <dc:title></dc:title>
      </cc:Work>
    </rdf:RDF>
  </metadata>
  <g
     id="layer1">
    <ellipse
       id="ellipse2007"
       ry="5.0640059"
       rx="5.1938925"
       cy="29.741997"
       cx="-65.753899"
       style="fill:#e8eae8;stroke-width:0.121731"
       transform="rotate(-90.206264)" />
    <g
       transform="matrix(0.12173012,0,0,0.12173012,-2.9867995,8.5044139)"
       id="g2021">
      <polygon
         id="polygon2009"
         points="276.151,485.43 271.885,469.43 285.751,458.763 297.485,469.43 292.151,485.43 "
         style="fill:#2f4251" />
      <polygon
         id="polygon2011"
         points="243.085,498.23 255.885,507.829 268.685,505.696 264.418,496.096 247.351,490.763 "
         style="fill:#2f4251" />
      <polygon
         id="polygon2013"
         points="244.151,473.696 254.818,463.03 251.618,448.096 239.885,449.163 234.551,464.096 "
         style="fill:#2f4251" />
      <polygon
         id="polygon2015"
         points="267.618,437.43 282.551,442.763 293.218,437.43 282.551,428.896 267.618,428.896 "
         style="fill:#2f4251" />
      <path
         id="path2017"
         d="m 308.151,449.163 -2.133,1.067 1.067,13.867 4.267,9.6 h 1.067 c 0,-1.067 0,-2.133 0,-4.267 1.066,-7.467 -1.068,-13.867 -4.268,-20.267 z"
         style="fill:#2f4251" />
      <path
         id="path2019"
         d="m 304.951,495.03 1.067,-3.2 -9.6,4.267 -10.667,10.667 1.067,1.067 h 1.067 c 6.4,-2.135 12.8,-6.401 17.066,-12.801 z"
         style="fill:#2f4251" />
    </g>
    <g
       transform="matrix(0.12173012,0,0,0.12173012,-2.9867995,8.5044139)"
       id="g2023" />
    <g
       transform="matrix(0.12173012,0,0,0.12173012,-2.9867995,8.5044139)"
       id="g2025" />
    <g
       transform="matrix(0.12173012,0,0,0.12173012,-2.9867995,8.5044139)"
       id="g2027" />
    <g
       transform="matrix(0.12173012,0,0,0.12173012,-2.9867995,8.5044139)"
       id="g2029" />
    <g
       transform="matrix(0.12173012,0,0,0.12173012,-2.9867995,8.5044139)"
       id="g2031" />
    <g
       transform="matrix(0.12173012,0,0,0.12173012,-2.9867995,8.5044139)"
       id="g2033" />
    <g
       transform="matrix(0.12173012,0,0,0.12173012,-2.9867995,8.5044139)"
       id="g2035" />
    <g
       transform="matrix(0.12173012,0,0,0.12173012,-2.9867995,8.5044139)"
       id="g2037" />
    <g
       transform="matrix(0.12173012,0,0,0.12173012,-2.9867995,8.5044139)"
       id="g2039" />
    <g
       transform="matrix(0.12173012,0,0,0.12173012,-2.9867995,8.5044139)"
       id="g2041" />
    <g
       transform="matrix(0.12173012,0,0,0.12173012,-2.9867995,8.5044139)"
       id="g2043" />
    <g
       transform="matrix(0.12173012,0,0,0.12173012,-2.9867995,8.5044139)"
       id="g2045" />
    <g
       transform="matrix(0.12173012,0,0,0.12173012,-2.9867995,8.5044139)"
       id="g2047" />
    <g
       transform="matrix(0.12173012,0,0,0.12173012,-2.9867995,8.5044139)"
       id="g2049" />
    <g
       transform="matrix(0.12173012,0,0,0.12173012,-2.9867995,8.5044139)"
       id="g2051" />
  </g>
</svg>
